<svg width="205" height="32" viewBox="0 0 205 32" fill="none" xmlns="http://www.w3.org/2000/svg">
<g clip-path="url(#clip0_11_482)">
<path d="M49 6.19989C43.29 6.19989 41.27 9.19989 41.27 12.0699C41.27 16.1699 44.81 17.0099 47.98 17.7499C50.18 18.2799 52.08 18.7499 52.08 20.2999C52.08 21.1099 51.61 22.4399 48.42 22.4399C46.2365 22.3926 44.1164 21.6963 42.33 20.4399L40.93 23.6099C43.1358 25.0689 45.7362 25.8158 48.38 25.7499C53.1 25.7499 56.17 23.4499 56.17 19.9099C56.17 15.9099 52.57 15.0699 49.43 14.3199C47.23 13.7899 45.33 13.3199 45.33 11.7999C45.33 9.79987 47.84 9.52988 48.96 9.52988C50.1615 9.46702 51.3592 9.71136 52.44 10.2399L55.44 7.99988C53.4801 6.81474 51.2401 6.17277 48.95 6.13989L49 6.19989ZM98.77 6.50989V25.5099H102.87V20.1399H106.94L110.57 25.5099H114.95L110.79 19.3299C111.974 18.8486 112.982 18.0147 113.676 16.9414C114.37 15.8681 114.717 14.6072 114.67 13.3299C114.67 9.13986 111.56 6.52988 106.6 6.52988H98.78L98.77 6.50989ZM186.55 6.50989V25.5099H190.65V17.8699H193.2L199.47 25.5099H204.75L196.37 15.6999L203.7 6.53989H199.01L192.92 14.6699H190.65V6.53989H186.55V6.50989ZM80.61 6.50989V25.5099H94.96V22.3399H84.71V17.4999H93.5V14.3299H84.74V9.69989H90.74L95.03 6.52988H80.61V6.50989ZM149.82 6.50989L141.65 25.5099H145.81L147.5 21.6999H156.19L157.74 25.5199H162.06L154.06 6.51987H149.87L149.82 6.50989ZM164.63 6.50989V25.5099H168.57V13.0999L177.98 25.5199H181.86V6.51987H177.95V18.9999L168.5 6.53989H164.62L164.63 6.50989ZM59.96 6.50989V25.5099H69.5C74.22 25.5099 76.83 23.6799 76.83 20.3899C76.8857 19.3485 76.5882 18.3187 75.9856 17.4675C75.383 16.6163 74.5107 15.9935 73.51 15.6999L73.32 15.6399L73.51 15.5499C74.258 15.1552 74.881 14.5595 75.3085 13.8297C75.7361 13.1 75.9513 12.2654 75.93 11.4199C75.93 8.34989 73.32 6.54987 68.93 6.54987H59.93L59.96 6.50989ZM123.33 6.50989V25.5099H132.83C137.55 25.5099 140.16 23.6799 140.16 20.3899C140.2 19.3553 139.896 18.3366 139.295 17.4934C138.694 16.6502 137.831 16.03 136.84 15.7299L136.65 15.6399L136.84 15.5499C137.591 15.1589 138.217 14.5639 138.645 13.8333C139.073 13.1028 139.286 12.2662 139.26 11.4199C139.26 8.34989 136.65 6.54987 132.26 6.54987H123.26L123.33 6.50989ZM64.06 9.63989H68.41C71.17 9.63989 71.73 10.9099 71.73 11.9699C71.73 13.4899 70.58 14.2999 68.41 14.2999H64.06V9.63989ZM131.78 9.63989C134.51 9.63989 135.1 10.9099 135.1 11.9699C135.1 13.4899 133.95 14.2999 131.78 14.2999H127.43V9.66989H131.78V9.63989ZM102.87 9.63989H106.5C109.14 9.63989 110.57 10.9399 110.57 13.2699C110.57 15.5999 109.14 16.9999 106.5 16.9999H102.87V9.63989ZM151.87 10.8199L154.87 18.4299H148.7L151.87 10.8199ZM64.06 17.4299H69.15C71.48 17.4299 72.66 18.2399 72.66 19.8499C72.66 21.4599 71.51 22.2699 69.15 22.2699H64.06V17.4299ZM127.43 17.4299H132.5C134.83 17.4299 136.01 18.2399 136.01 19.8499C136.01 21.4599 134.86 22.2699 132.5 22.2699H127.41L127.43 17.4299Z" fill="#8B8B8B"/>
<path d="M28.5 6.38989C29.2423 7.36473 29.8761 8.41761 30.39 9.52988L16.04 20.1199L10.04 16.3299V11.7999L16.04 15.5599L28.5 6.38989Z" fill="#8B8B8B"/>
<path d="M3.88001 15.9999C3.86458 15.7936 3.86458 15.5863 3.88001 15.3799L0.250001 15.1899C0.250001 15.4399 0.250001 15.7199 0.250001 15.9699C0.249412 18.0418 0.658144 20.0934 1.4527 22.0068C2.24725 23.9203 3.41198 25.6579 4.88001 27.1199L7.45999 24.5399C6.32601 23.4261 5.42605 22.0969 4.81299 20.6303C4.19992 19.1638 3.88614 17.5895 3.89002 15.9999H3.88001Z" fill="#8B8B8B"/>
<path d="M15.99 3.90003C16.1964 3.8846 16.4036 3.8846 16.61 3.90003L16.8 0.27002H16.02C13.9481 0.269432 11.8966 0.678163 9.98312 1.47272C8.06967 2.26727 6.33202 3.432 4.87 4.90002L7.45001 7.48004C8.56624 6.34922 9.89593 5.45131 11.3619 4.83847C12.8279 4.22563 14.401 3.91006 15.99 3.91003V3.90003Z" fill="#8B8B8B"/>
<path d="M15.99 28.1301C15.7836 28.1455 15.5764 28.1455 15.37 28.1301L15.18 31.7601H15.96C18.0319 31.7607 20.0834 31.3519 21.9969 30.5574C23.9103 29.7628 25.648 28.5981 27.11 27.1301L24.5 24.55C23.3903 25.6895 22.0618 26.5931 20.5943 27.2066C19.1268 27.8201 17.5505 28.1307 15.96 28.1201L15.99 28.1301Z" fill="#8B8B8B"/>
<path d="M22.82 5.99997L25.89 3.72998C23.0854 1.46091 19.5876 0.222016 15.98 0.219971V3.84998C18.4193 3.86503 20.7982 4.61038 22.81 5.98996L22.82 5.99997Z" fill="#8B8B8B"/>
<path d="M31.77 15.9999C31.7654 15.0513 31.6818 14.1047 31.52 13.1699L28.14 15.6899V15.9999C28.1479 17.6977 27.7954 19.3777 27.1059 20.9292C26.4163 22.4806 25.4055 23.8681 24.14 24.9999L26.59 27.6999C28.225 26.2215 29.531 24.416 30.4234 22.4004C31.3158 20.3848 31.7745 18.2042 31.77 15.9999Z" fill="#8B8B8B"/>
<path d="M15.99 28.1299C14.2923 28.1378 12.6122 27.7853 11.0608 27.0958C9.50932 26.4062 8.12185 25.3953 6.99002 24.1299L4.29004 26.5799C5.76289 28.2172 7.56432 29.5256 9.57684 30.4199C11.5894 31.3141 13.7678 31.7741 15.97 31.7699L15.99 28.1299Z" fill="#8B8B8B"/>
<path d="M7.88997 7.00006L5.43996 4.30005C3.80018 5.77515 2.49026 7.57983 1.59591 9.59601C0.701551 11.6122 0.242906 13.7944 0.249958 16.0001H3.87996C3.87715 14.3031 4.2319 12.6246 4.9211 11.0739C5.6103 9.52322 6.61848 8.13511 7.87996 7.00006H7.88997Z" fill="#8B8B8B"/>
</g>
<defs>
<clipPath id="clip0_11_482">
<rect width="204.5" height="31.52" fill="white" transform="translate(0.25 0.23999)"/>
</clipPath>
</defs>
</svg>
