<?xml version="1.0" standalone="no"?>
<!DOCTYPE svg PUBLIC "-//W3C//DTD SVG 20010904//EN"
 "http://www.w3.org/TR/2001/REC-SVG-20010904/DTD/svg10.dtd">
<svg version="1.0" xmlns="http://www.w3.org/2000/svg"
 width="136.000000pt" height="136.000000pt" viewBox="0 0 136.000000 136.000000"
 preserveAspectRatio="xMidYMid meet">
<metadata>
Created by potrace 1.14, written by Peter Selinger 2001-2017
</metadata>
<g transform="translate(0.000000,136.000000) scale(0.100000,-0.100000)"
fill="#000000" stroke="none">
<path d="M386 1078 c-85 -31 -118 -128 -67 -198 22 -30 100 -71 124 -66 9 2
15 0 12 -5 -3 -4 6 -11 20 -15 29 -7 75 -58 75 -82 -1 -15 -2 -15 -15 1 -7 10
-21 17 -30 15 -15 -3 -15 -6 4 -29 21 -27 21 -27 1 -52 -24 -30 -25 -37 -6
-37 8 0 22 10 30 22 14 20 16 20 16 4 0 -34 -61 -82 -120 -95 -81 -17 -106
-31 -124 -68 -48 -101 30 -205 140 -188 24 3 44 10 44 16 0 5 7 9 15 9 17 0
37 36 56 105 18 63 63 108 131 130 29 10 67 28 85 41 17 13 39 24 47 24 9 0
16 5 16 10 0 6 -4 10 -9 10 -5 0 -9 19 -9 43 2 81 -45 129 -139 143 -59 9 -95
43 -118 114 -31 96 -43 119 -77 137 -42 21 -65 24 -102 11z"/>
<path d="M108 816 c-52 -28 -69 -43 -85 -76 -58 -123 49 -249 184 -216 41 9
103 77 104 114 5 84 -14 130 -67 163 -38 23 -105 31 -136 15z"/>
<path d="M895 732 c-31 -6 -43 -29 -38 -70 6 -42 16 -52 56 -52 48 0 67 16 67
59 0 50 -31 74 -85 63z m46 -29 c0 -5 2 -16 4 -27 6 -29 -6 -47 -29 -44 -16 2
-22 11 -24 41 -3 34 -1 37 22 37 14 0 26 -3 27 -7z"/>
<path d="M378 707 c-2 -13 -3 -40 0 -60 4 -37 4 -37 51 -37 33 0 48 4 48 13 0
9 -12 13 -34 12 -22 -2 -33 2 -33 11 0 9 11 14 30 14 17 0 30 5 30 10 0 10
-13 14 -42 11 -10 -1 -18 4 -18 13 0 12 10 16 35 16 19 0 35 5 35 10 0 6 -22
10 -49 10 -43 0 -49 -3 -53 -23z"/>
<path d="M1000 670 c0 -47 3 -60 15 -60 9 0 15 9 15 25 0 14 4 25 8 25 5 0 15
-11 22 -25 7 -14 22 -25 33 -25 18 0 18 1 3 25 -15 22 -15 25 0 33 12 7 15 17
10 36 -6 24 -11 26 -56 26 l-50 0 0 -60z m75 25 c0 -5 -10 -11 -22 -13 -16 -2
-23 2 -23 13 0 11 7 15 23 13 12 -2 22 -7 22 -13z"/>
<path d="M1130 670 l0 -60 51 0 c36 0 49 4 47 12 -3 7 -19 12 -36 12 -21 -1
-32 3 -32 12 0 9 11 14 30 14 19 0 30 5 30 14 0 9 -10 12 -30 10 -21 -3 -30 1
-30 11 0 10 11 15 35 15 19 0 35 5 35 10 0 6 -22 10 -50 10 l-50 0 0 -60z"/>
<path d="M1249 698 c-6 -52 1 -88 17 -88 9 0 14 10 14 28 l1 27 22 -27 c13
-16 31 -28 40 -28 16 0 16 2 3 23 -13 19 -13 25 -1 41 24 32 2 56 -49 56 -42
0 -44 -1 -47 -32z m71 -3 c0 -8 -9 -15 -20 -15 -11 0 -20 7 -20 15 0 8 9 15
20 15 11 0 20 -7 20 -15z"/>
</g>
</svg>
