<svg width="25" height="25" viewBox="0 0 25 25" fill="none" xmlns="http://www.w3.org/2000/svg">
<g clip-path="url(#clip0_15_205)">
<path d="M15.625 6.77075C15.3487 6.77075 15.0838 6.66101 14.8884 6.46565C14.6931 6.2703 14.5833 6.00535 14.5833 5.72909V4.16659H10.4167V5.72909C10.4167 6.00535 10.3069 6.2703 10.1116 6.46565C9.91622 6.66101 9.65127 6.77075 9.375 6.77075C9.09873 6.77075 8.83378 6.66101 8.63843 6.46565C8.44308 6.2703 8.33333 6.00535 8.33333 5.72909V4.16659C8.33333 3.01763 9.26771 2.08325 10.4167 2.08325H14.5833C15.7323 2.08325 16.6667 3.01763 16.6667 4.16659V5.72909C16.6667 6.00535 16.5569 6.2703 16.3616 6.46565C16.1662 6.66101 15.9013 6.77075 15.625 6.77075ZM13.2396 16.0208C12.7388 16.1929 12.1938 16.1855 11.6979 15.9999L0 12.1041V20.052C0 21.6353 1.28125 22.9166 2.86458 22.9166H22.1354C23.7188 22.9166 25 21.6353 25 20.052V12.1041L13.2396 16.0208Z" fill="#FF964A"/>
<path d="M25 8.07284V10.4583L12.75 14.5416C12.6667 14.5728 12.5833 14.5833 12.5 14.5833C12.4167 14.5833 12.3333 14.5728 12.25 14.5416L0 10.4583V8.07284C0 6.4895 1.28125 5.20825 2.86458 5.20825H22.1354C23.7188 5.20825 25 6.4895 25 8.07284Z" fill="#FF964A"/>
</g>
<defs>
<clipPath id="clip0_15_205">
<rect width="25" height="25" fill="white"/>
</clipPath>
</defs>
</svg>
