<svg width="20" height="20" viewBox="0 0 20 20" fill="none" xmlns="http://www.w3.org/2000/svg">
<path d="M9.99996 1.66663C8.35179 1.66663 6.74062 2.15537 5.37021 3.07105C3.9998 3.98672 2.9317 5.28821 2.30097 6.81093C1.67024 8.33365 1.50521 10.0092 1.82675 11.6257C2.1483 13.2422 2.94197 14.7271 4.10741 15.8925C5.27284 17.058 6.7577 17.8516 8.37421 18.1732C9.99072 18.4947 11.6663 18.3297 13.189 17.699C14.7117 17.0682 16.0132 16.0001 16.9289 14.6297C17.8446 13.2593 18.3333 11.6481 18.3333 9.99996C18.3333 8.90561 18.1177 7.82198 17.699 6.81093C17.2802 5.79988 16.6663 4.88122 15.8925 4.1074C15.1187 3.33358 14.2 2.71975 13.189 2.30096C12.1779 1.88217 11.0943 1.66663 9.99996 1.66663ZM14.73 8.53079L9.72996 13.1141C9.57166 13.2593 9.36342 13.3377 9.14869 13.3331C8.93396 13.3284 8.72932 13.241 8.57746 13.0891L6.07746 10.5891C5.99787 10.5123 5.93439 10.4203 5.89071 10.3186C5.84704 10.217 5.82405 10.1076 5.82309 9.99696C5.82213 9.88631 5.84321 9.77658 5.88511 9.67416C5.92701 9.57175 5.98889 9.47871 6.06713 9.40046C6.14538 9.32222 6.23842 9.26034 6.34083 9.21844C6.44325 9.17654 6.55298 9.15546 6.66363 9.15642C6.77428 9.15738 6.88363 9.18037 6.9853 9.22404C7.08697 9.26772 7.17892 9.3312 7.2558 9.41079L9.19163 11.3466L13.6033 7.30246C13.7662 7.15305 13.9817 7.07448 14.2026 7.08401C14.4234 7.09354 14.6314 7.19041 14.7808 7.35329C14.9302 7.51618 15.0088 7.73175 14.9992 7.95257C14.9897 8.1734 14.8929 8.38139 14.73 8.53079Z" fill="white"/>
</svg>
