<svg width="20" height="20" viewBox="0 0 20 20" fill="none" xmlns="http://www.w3.org/2000/svg">
<g clip-path="url(#clip0_84_5)">
<path d="M5.55875 20C5.13101 20 4.69538 19.9417 4.25624 19.8242C2.33817 19.3103 0.710661 17.6994 0.206048 15.8163C-0.252471 14.1049 0.239954 12.418 1.59262 11.0656L11.0452 1.61292C13.282 -0.624367 15.9446 -0.302724 17.4178 1.17127C18.8187 2.57191 19.2596 5.14564 16.9188 7.48679L9.89272 14.5125C8.14834 16.2569 6.05875 16.0507 4.9789 14.9701C3.94908 13.9402 3.68158 11.9918 5.52683 10.1466L11.6073 4.06637C11.8572 3.81641 12.2624 3.81641 12.5122 4.06637C12.7622 4.3163 12.7622 4.72146 12.5119 4.97091L6.43141 11.0514C5.20136 12.2819 5.26956 13.452 5.88344 14.0651C6.54125 14.7229 7.81872 14.7766 8.98815 13.6076L16.0138 6.58147C17.7422 4.8531 17.5101 3.07301 16.5129 2.07597C15.5203 1.08295 13.6688 0.798379 11.9498 2.51742L2.49763 11.9706C1.1959 13.2724 1.2052 14.6002 1.44235 15.4851C1.83251 16.9414 3.09654 18.1888 4.58749 18.5884C5.87336 18.9328 7.1263 18.5776 8.11584 17.5877L16.6225 9.08149C16.8727 8.83125 17.2779 8.83157 17.527 9.08149C17.7773 9.3313 17.7773 9.73657 17.527 9.98634L9.02034 18.4927C8.02748 19.4853 6.82997 20 5.55875 20Z" fill="#8B8B8B"/>
</g>
<defs>
<clipPath id="clip0_84_5">
<rect width="20" height="20" fill="white"/>
</clipPath>
</defs>
</svg>
