<svg width="50" height="50" viewBox="0 0 50 50" fill="none" xmlns="http://www.w3.org/2000/svg">
<path d="M45.3125 15.625V3.125H4.6875V7.8125H26.5625C26.9769 7.8125 27.3743 7.97712 27.6674 8.27015C27.9604 8.56317 28.125 8.9606 28.125 9.375C28.125 9.7894 27.9604 10.1868 27.6674 10.4799C27.3743 10.7729 26.9769 10.9375 26.5625 10.9375H4.6875V15.625H23.4375V17.1875H4.6875V21.875H26.5625C26.9769 21.875 27.3743 22.0396 27.6674 22.3326C27.9604 22.6257 28.125 23.0231 28.125 23.4375C28.125 23.8519 27.9604 24.2493 27.6674 24.5424C27.3743 24.8354 26.9769 25 26.5625 25H4.6875V29.6875H23.4375V31.25H4.6875V35.9375H26.5625C26.9769 35.9375 27.3743 36.1021 27.6674 36.3951C27.9604 36.6882 28.125 37.0856 28.125 37.5C28.125 37.9144 27.9604 38.3118 27.6674 38.6049C27.3743 38.8979 26.9769 39.0625 26.5625 39.0625H4.6875V43.75H7.8125V45.3125C7.8125 45.7269 7.97712 46.1243 8.27015 46.4174C8.56317 46.7104 8.9606 46.875 9.375 46.875C9.7894 46.875 10.1868 46.7104 10.4799 46.4174C10.7729 46.1243 10.9375 45.7269 10.9375 45.3125V43.75H23.4375V45.3125C23.4375 45.7269 23.6021 46.1243 23.8951 46.4174C24.1882 46.7104 24.5856 46.875 25 46.875C25.4144 46.875 25.8118 46.7104 26.1049 46.4174C26.3979 46.1243 26.5625 45.7269 26.5625 45.3125V43.75H39.0625V45.3125C39.0625 45.7269 39.2271 46.1243 39.5201 46.4174C39.8132 46.7104 40.2106 46.875 40.625 46.875C41.0394 46.875 41.4368 46.7104 41.7299 46.4174C42.0229 46.1243 42.1875 45.7269 42.1875 45.3125V43.75H45.3125V31.25H26.5625V29.6875H45.3125V17.1875H26.5625V15.625H45.3125ZM40.625 7.8125C40.934 7.8125 41.2361 7.90414 41.4931 8.07583C41.75 8.24752 41.9503 8.49155 42.0686 8.77706C42.1868 9.06257 42.2178 9.37673 42.1575 9.67983C42.0972 9.98292 41.9484 10.2613 41.7299 10.4799C41.5113 10.6984 41.2329 10.8472 40.9298 10.9075C40.6267 10.9678 40.3126 10.9368 40.0271 10.8186C39.7416 10.7003 39.4975 10.5 39.3258 10.2431C39.1541 9.98613 39.0625 9.68403 39.0625 9.375C39.0625 8.9606 39.2271 8.56317 39.5201 8.27015C39.8132 7.97712 40.2106 7.8125 40.625 7.8125ZM35.9375 7.8125C36.2465 7.8125 36.5486 7.90414 36.8056 8.07583C37.0625 8.24752 37.2628 8.49155 37.3811 8.77706C37.4993 9.06257 37.5303 9.37673 37.47 9.67983C37.4097 9.98292 37.2609 10.2613 37.0424 10.4799C36.8238 10.6984 36.5454 10.8472 36.2423 10.9075C35.9392 10.9678 35.6251 10.9368 35.3396 10.8186C35.054 10.7003 34.81 10.5 34.6383 10.2431C34.4666 9.98613 34.375 9.68403 34.375 9.375C34.375 8.9606 34.5396 8.56317 34.8326 8.27015C35.1257 7.97712 35.5231 7.8125 35.9375 7.8125ZM31.25 7.8125C31.559 7.8125 31.8611 7.90414 32.1181 8.07583C32.375 8.24752 32.5753 8.49155 32.6936 8.77706C32.8118 9.06257 32.8428 9.37673 32.7825 9.67983C32.7222 9.98292 32.5734 10.2613 32.3549 10.4799C32.1363 10.6984 31.8579 10.8472 31.5548 10.9075C31.2517 10.9678 30.9376 10.9368 30.6521 10.8186C30.3665 10.7003 30.1225 10.5 29.9508 10.2431C29.7791 9.98613 29.6875 9.68403 29.6875 9.375C29.6875 8.9606 29.8521 8.56317 30.1451 8.27015C30.4382 7.97712 30.8356 7.8125 31.25 7.8125ZM40.625 35.9375C40.934 35.9375 41.2361 36.0291 41.4931 36.2008C41.75 36.3725 41.9503 36.6166 42.0686 36.9021C42.1868 37.1876 42.2178 37.5017 42.1575 37.8048C42.0972 38.1079 41.9484 38.3863 41.7299 38.6049C41.5113 38.8234 41.2329 38.9722 40.9298 39.0325C40.6267 39.0928 40.3126 39.0618 40.0271 38.9436C39.7416 38.8253 39.4975 38.625 39.3258 38.3681C39.1541 38.1111 39.0625 37.809 39.0625 37.5C39.0625 37.0856 39.2271 36.6882 39.5201 36.3951C39.8132 36.1021 40.2106 35.9375 40.625 35.9375ZM35.9375 35.9375C36.2465 35.9375 36.5486 36.0291 36.8056 36.2008C37.0625 36.3725 37.2628 36.6166 37.3811 36.9021C37.4993 37.1876 37.5303 37.5017 37.47 37.8048C37.4097 38.1079 37.2609 38.3863 37.0424 38.6049C36.8238 38.8234 36.5454 38.9722 36.2423 39.0325C35.9392 39.0928 35.6251 39.0618 35.3396 38.9436C35.054 38.8253 34.81 38.625 34.6383 38.3681C34.4666 38.1111 34.375 37.809 34.375 37.5C34.375 37.0856 34.5396 36.6882 34.8326 36.3951C35.1257 36.1021 35.5231 35.9375 35.9375 35.9375ZM31.25 35.9375C31.559 35.9375 31.8611 36.0291 32.1181 36.2008C32.375 36.3725 32.5753 36.6166 32.6936 36.9021C32.8118 37.1876 32.8428 37.5017 32.7825 37.8048C32.7222 38.1079 32.5734 38.3863 32.3549 38.6049C32.1363 38.8234 31.8579 38.9722 31.5548 39.0325C31.2517 39.0928 30.9376 39.0618 30.6521 38.9436C30.3665 38.8253 30.1225 38.625 29.9508 38.3681C29.7791 38.1111 29.6875 37.809 29.6875 37.5C29.6875 37.0856 29.8521 36.6882 30.1451 36.3951C30.4382 36.1021 30.8356 35.9375 31.25 35.9375ZM40.625 21.875C40.934 21.875 41.2361 21.9666 41.4931 22.1383C41.75 22.31 41.9503 22.554 42.0686 22.8396C42.1868 23.1251 42.2178 23.4392 42.1575 23.7423C42.0972 24.0454 41.9484 24.3238 41.7299 24.5424C41.5113 24.7609 41.2329 24.9097 40.9298 24.97C40.6267 25.0303 40.3126 24.9993 40.0271 24.8811C39.7416 24.7628 39.4975 24.5625 39.3258 24.3056C39.1541 24.0486 39.0625 23.7465 39.0625 23.4375C39.0625 23.0231 39.2271 22.6257 39.5201 22.3326C39.8132 22.0396 40.2106 21.875 40.625 21.875ZM35.9375 21.875C36.2465 21.875 36.5486 21.9666 36.8056 22.1383C37.0625 22.31 37.2628 22.554 37.3811 22.8396C37.4993 23.1251 37.5303 23.4392 37.47 23.7423C37.4097 24.0454 37.2609 24.3238 37.0424 24.5424C36.8238 24.7609 36.5454 24.9097 36.2423 24.97C35.9392 25.0303 35.6251 24.9993 35.3396 24.8811C35.054 24.7628 34.81 24.5625 34.6383 24.3056C34.4666 24.0486 34.375 23.7465 34.375 23.4375C34.375 23.0231 34.5396 22.6257 34.8326 22.3326C35.1257 22.0396 35.5231 21.875 35.9375 21.875ZM31.25 21.875C31.559 21.875 31.8611 21.9666 32.1181 22.1383C32.375 22.31 32.5753 22.554 32.6936 22.8396C32.8118 23.1251 32.8428 23.4392 32.7825 23.7423C32.7222 24.0454 32.5734 24.3238 32.3549 24.5424C32.1363 24.7609 31.8579 24.9097 31.5548 24.97C31.2517 25.0303 30.9376 24.9993 30.6521 24.8811C30.3665 24.7628 30.1225 24.5625 29.9508 24.3056C29.7791 24.0486 29.6875 23.7465 29.6875 23.4375C29.6875 23.0231 29.8521 22.6257 30.1451 22.3326C30.4382 22.0396 30.8356 21.875 31.25 21.875Z" fill="#613296"/>
</svg>
