<svg width="50" height="50" viewBox="0 0 50 50" fill="none" xmlns="http://www.w3.org/2000/svg">
<path d="M46.8309 9.85918V0H42.6056V9.85918H40.4929V21.1268H42.6056V40.8451C42.6056 43.5633 40.3941 45.7747 37.676 45.7747C34.9578 45.7747 32.7464 43.5633 32.7464 40.8451V12.6761C32.7464 8.40469 29.2713 4.92959 24.9999 4.92959C20.7285 4.92959 17.2534 8.40469 17.2534 12.6761V40.8451C17.2534 43.5633 15.042 45.7747 12.3238 45.7747C9.60565 45.7747 7.39423 43.5633 7.39423 40.8451V21.1268H9.50692V5.63379H1.05634V21.1268H3.16903V40.8451C3.16903 45.8932 7.27596 50 12.3239 50C17.372 50 21.4788 45.8931 21.4788 40.8451V12.6761C21.4788 10.7346 23.0584 9.15498 24.9999 9.15498C26.9414 9.15498 28.521 10.7346 28.521 12.6761V40.8451C28.521 45.8932 32.6279 50 37.6759 50C42.245 50 46.0428 46.6353 46.7223 42.2535H46.8308V21.1268H48.9435V9.85918H46.8309Z" fill="#613296"/>
</svg>
