<svg width="50" height="50" viewBox="0 0 50 50" fill="none" xmlns="http://www.w3.org/2000/svg">
<path d="M8.59375 14.0625V28.125C8.59375 28.3322 8.67606 28.5309 8.82257 28.6774C8.96909 28.8239 9.1678 28.9062 9.375 28.9062H21.875C22.0822 28.9062 22.2809 28.8239 22.4274 28.6774C22.5739 28.5309 22.6562 28.3322 22.6562 28.125V14.0625C22.6562 13.8553 22.5739 13.6566 22.4274 13.5101C22.2809 13.3636 22.0822 13.2812 21.875 13.2812H9.375C9.1678 13.2812 8.96909 13.3636 8.82257 13.5101C8.67606 13.6566 8.59375 13.8553 8.59375 14.0625ZM14.8438 27.3438H13.2812V25.7812H14.8438V27.3438ZM14.8438 24.2188H13.2812V22.6562H14.8438V24.2188ZM17.9688 27.3438H16.4062V25.7812H17.9688V27.3438ZM17.9688 24.2188H16.4062V22.6562H17.9688V24.2188ZM21.0938 27.3438H19.5312V25.7812H21.0938V27.3438ZM21.0938 24.2188H19.5312V22.6562H21.0938V24.2188ZM10.1562 15.625C10.1562 15.4178 10.2386 15.2191 10.3851 15.0726C10.5316 14.9261 10.7303 14.8438 10.9375 14.8438H20.3125C20.5197 14.8438 20.7184 14.9261 20.8649 15.0726C21.0114 15.2191 21.0938 15.4178 21.0938 15.625V20.3125C21.0938 20.5197 21.0114 20.7184 20.8649 20.8649C20.7184 21.0114 20.5197 21.0938 20.3125 21.0938H10.9375C10.7303 21.0938 10.5316 21.0114 10.3851 20.8649C10.2386 20.7184 10.1562 20.5197 10.1562 20.3125V15.625ZM10.1562 22.6562H11.7188V24.2188H10.1562V22.6562ZM10.1562 25.7812H11.7188V27.3438H10.1562V25.7812ZM20.3125 3.125C20.3151 2.85825 20.3637 2.59395 20.4562 2.34375H11.7188C11.5115 2.34375 11.3128 2.42606 11.1663 2.57257C11.0198 2.71909 10.9375 2.9178 10.9375 3.125V11.7188H20.3125V3.125ZM18.75 8.59375H12.5V7.03125H18.75V8.59375ZM18.75 5.46875H12.5V3.90625H18.75V5.46875ZM32.8125 44.5312H17.1875C16.5659 44.5312 15.9698 44.7782 15.5302 45.2177C15.0907 45.6573 14.8438 46.2534 14.8438 46.875V47.6562H35.1562V46.875C35.1562 46.2534 34.9093 45.6573 34.4698 45.2177C34.0302 44.7782 33.4341 44.5312 32.8125 44.5312ZM23.4375 39.8438H26.5625V42.9688H23.4375V39.8438ZM2.34375 35.9375C2.34375 36.5591 2.59068 37.1552 3.03022 37.5948C3.46976 38.0343 4.0659 38.2812 4.6875 38.2812H45.3125C45.9341 38.2812 46.5302 38.0343 46.9698 37.5948C47.4093 37.1552 47.6562 36.5591 47.6562 35.9375V33.5938H2.34375V35.9375ZM42.9688 35.1562H44.5312V36.7188H42.9688V35.1562ZM39.8438 35.1562H41.4062V36.7188H39.8438V35.1562ZM36.7188 35.1562H38.2812V36.7188H36.7188V35.1562ZM23.4375 3.125C23.4375 2.9178 23.3552 2.71909 23.2087 2.57257C23.0622 2.42606 22.8635 2.34375 22.6562 2.34375C22.449 2.34375 22.2503 2.42606 22.1038 2.57257C21.9573 2.71909 21.875 2.9178 21.875 3.125V5.46875H23.4375V3.125ZM43.75 19.5312H28.125C27.9178 19.5312 27.7191 19.6136 27.5726 19.7601C27.4261 19.9066 27.3438 20.1053 27.3438 20.3125V28.125C27.3438 28.3322 27.4261 28.5309 27.5726 28.6774C27.7191 28.8239 27.9178 28.9062 28.125 28.9062H43.75C43.9572 28.9062 44.1559 28.8239 44.3024 28.6774C44.4489 28.5309 44.5312 28.3322 44.5312 28.125V20.3125C44.5312 20.1053 44.4489 19.9066 44.3024 19.7601C44.1559 19.6136 43.9572 19.5312 43.75 19.5312ZM42.9688 26.5625H28.9062V25H42.9688V26.5625ZM42.9688 23.4375H28.9062V21.875H42.9688V23.4375Z" fill="#613296"/>
<path d="M45.3125 10.1562H43.5938C43.2351 11.9223 42.277 13.5101 40.8817 14.6506C39.4863 15.7911 37.7396 16.4141 35.9375 16.4141C34.1354 16.4141 32.3887 15.7911 30.9933 14.6506C29.598 13.5101 28.6399 11.9223 28.2812 10.1562H21.875V11.7188C22.4966 11.7188 23.0927 11.9657 23.5323 12.4052C23.9718 12.8448 24.2188 13.4409 24.2188 14.0625V28.125C24.2188 28.7466 23.9718 29.3427 23.5323 29.7823C23.0927 30.2218 22.4966 30.4688 21.875 30.4688H9.375C8.7534 30.4688 8.15726 30.2218 7.71772 29.7823C7.27818 29.3427 7.03125 28.7466 7.03125 28.125V14.0625C7.03125 13.4409 7.27818 12.8448 7.71772 12.4052C8.15726 11.9657 8.7534 11.7188 9.375 11.7188V10.1562H4.6875C4.0659 10.1562 3.46976 10.4032 3.03022 10.8427C2.59068 11.2823 2.34375 11.8784 2.34375 12.5V32.0312H47.6562V12.5C47.6562 11.8784 47.4093 11.2823 46.9698 10.8427C46.5302 10.4032 45.9341 10.1562 45.3125 10.1562ZM46.0938 28.125C46.0938 28.7466 45.8468 29.3427 45.4073 29.7823C44.9677 30.2218 44.3716 30.4688 43.75 30.4688H28.125C27.5034 30.4688 26.9073 30.2218 26.4677 29.7823C26.0282 29.3427 25.7812 28.7466 25.7812 28.125V20.3125C25.7812 19.6909 26.0282 19.0948 26.4677 18.6552C26.9073 18.2157 27.5034 17.9688 28.125 17.9688H43.75C44.3716 17.9688 44.9677 18.2157 45.4073 18.6552C45.8468 19.0948 46.0938 19.6909 46.0938 20.3125V28.125Z" fill="#613296"/>
<path d="M11.7188 16.4063H19.5312V19.5313H11.7188V16.4063ZM35.9375 14.8438C37.1736 14.8438 38.382 14.4772 39.4098 13.7904C40.4376 13.1037 41.2387 12.1276 41.7117 10.9855C42.1848 9.84349 42.3086 8.58682 42.0674 7.37444C41.8263 6.16206 41.231 5.04841 40.3569 4.17434C39.4828 3.30026 38.3692 2.705 37.1568 2.46384C35.9444 2.22269 34.6878 2.34646 33.5457 2.81951C32.4037 3.29255 31.4276 4.09363 30.7408 5.12144C30.0541 6.14925 29.6875 7.35762 29.6875 8.59375C29.6894 10.2508 30.3484 11.8394 31.5201 13.0111C32.6918 14.1828 34.2805 14.8419 35.9375 14.8438ZM35.9375 9.375C35.3853 9.37605 34.8505 9.18163 34.4279 8.82618C34.0053 8.47072 33.7222 7.97718 33.6286 7.43296C33.535 6.88873 33.6371 6.32895 33.9167 5.85276C34.1963 5.37657 34.6354 5.01471 35.1562 4.83125V3.90625H36.7188V4.83125C37.1741 4.99226 37.5687 5.29003 37.8484 5.68383C38.1281 6.07764 38.2792 6.54824 38.2812 7.03125H36.7188C36.7188 6.87674 36.6729 6.72569 36.5871 6.59721C36.5012 6.46874 36.3792 6.3686 36.2365 6.30947C36.0937 6.25034 35.9366 6.23487 35.7851 6.26501C35.6335 6.29516 35.4943 6.36957 35.3851 6.47883C35.2758 6.58809 35.2014 6.72729 35.1713 6.87884C35.1411 7.03039 35.1566 7.18747 35.2157 7.33022C35.2749 7.47298 35.375 7.59499 35.5035 7.68084C35.6319 7.76668 35.783 7.8125 35.9375 7.8125C36.4897 7.81146 37.0245 8.00588 37.4471 8.36133C37.8697 8.71678 38.1528 9.21033 38.2464 9.75455C38.34 10.2988 38.2379 10.8586 37.9583 11.3347C37.6787 11.8109 37.2396 12.1728 36.7188 12.3563V13.2813H35.1562V12.3563C34.7009 12.1953 34.3063 11.8975 34.0266 11.5037C33.7469 11.1099 33.5958 10.6393 33.5938 10.1563H35.1562C35.1562 10.3108 35.2021 10.4618 35.2879 10.5903C35.3738 10.7188 35.4958 10.8189 35.6385 10.878C35.7813 10.9372 35.9384 10.9526 36.0899 10.9225C36.2415 10.8923 36.3807 10.8179 36.4899 10.7087C36.5992 10.5994 36.6736 10.4602 36.7037 10.3087C36.7339 10.1571 36.7184 10 36.6593 9.85728C36.6001 9.71453 36.5 9.59251 36.3715 9.50667C36.2431 9.42082 36.092 9.375 35.9375 9.375Z" fill="#613296"/>
</svg>
