<svg width="50" height="50" viewBox="0 0 50 50" fill="none" xmlns="http://www.w3.org/2000/svg">
<path d="M20.5543 5.23193V6.07632C20.5543 7.75054 19.2013 9.09914 17.5313 9.09914H12.1504V10.6662H18.4656V11.3411C18.4656 12.6714 17.387 13.7532 16.0578 13.7532H12.1504V23.3669C13.2376 23.9267 14.0536 24.9469 14.3054 26.1806L18.4578 27.335L19.4898 23.4808C19.5755 23.1606 19.7847 22.8876 20.0713 22.7213C20.3583 22.5574 20.6983 22.5133 21.0175 22.5987L47.4913 29.6929C47.6967 29.7475 47.8847 29.8537 48.0374 30.0015C48.1901 30.1492 48.3024 30.3336 48.3637 30.5371C48.4248 30.7415 48.4328 30.9581 48.3868 31.1664C48.3408 31.3746 48.2425 31.5678 48.1011 31.7275L37.9372 43.1901C37.8201 43.3216 37.6765 43.4267 37.5158 43.4987C37.3552 43.5707 37.1811 43.6079 37.0051 43.6079C36.8954 43.6079 36.7881 43.5961 36.6818 43.5656L16.8261 38.2456C16.1608 38.0698 15.7659 37.3852 15.944 36.7189L17.4891 30.9517L13.2876 29.7854C12.5378 30.6003 11.4722 31.1157 10.2776 31.1157C8.00779 31.1157 6.16533 29.2754 6.16533 27.0064C6.16533 25.4125 7.08113 24.0453 8.40587 23.3618V13.7532H4.49428C3.1683 13.7532 2.0876 12.6714 2.0876 11.3411V10.6662H8.40604V9.09914H3.01865C1.35198 9.09914 4.95911e-05 7.75036 4.95911e-05 6.07632V5.23193H20.5543ZM49.0755 34.374C49.3948 34.4595 49.6672 34.6684 49.8326 34.9547C49.998 35.241 50.043 35.5812 49.9576 35.9006L47.8276 43.8433C47.7417 44.1625 47.5327 44.4345 47.2466 44.5999C46.9604 44.7653 46.6203 44.8105 46.3009 44.7256L40.0563 43.0524L48.0057 34.0864L49.0755 34.374Z" fill="#613296"/>
</svg>
