<svg width="50" height="50" viewBox="0 0 50 50" fill="none" xmlns="http://www.w3.org/2000/svg">
<g clip-path="url(#clip0_10_242)">
<path d="M16.5029 31.9164C16.0299 32.3936 15.7652 33.0388 15.7667 33.7108C15.7682 34.3827 16.0358 35.0268 16.511 35.5019C16.9861 35.977 17.6302 36.2446 18.3021 36.246C18.9741 36.2474 19.6192 35.9826 20.0964 35.5096C22.7999 32.806 27.1998 32.806 29.9033 35.5096C30.3996 36.0055 31.05 36.2539 31.7002 36.2539C32.3503 36.2539 33.0008 36.0059 33.4971 35.5096C33.9735 35.0331 34.2412 34.3868 34.2412 33.713C34.2412 33.0391 33.9735 32.3929 33.4971 31.9164C28.8117 27.231 21.1883 27.231 16.5029 31.9164Z" fill="#613296"/>
<path d="M9.05573 24.4689C8.58269 24.9461 8.31796 25.5913 8.31946 26.2633C8.32097 26.9352 8.58858 27.5792 9.06375 28.0543C9.53892 28.5295 10.1829 28.797 10.8549 28.7985C11.5269 28.7999 12.172 28.5351 12.6492 28.062C19.4595 21.2518 30.5408 21.2518 37.3508 28.062C37.8471 28.558 38.4976 28.8063 39.1477 28.8063C39.7978 28.8063 40.4483 28.5583 40.9446 28.062C41.421 27.5855 41.6887 26.9393 41.6887 26.2654C41.6887 25.5916 41.421 24.9454 40.9446 24.4689C32.1528 15.6774 17.8476 15.6774 9.05573 24.4689Z" fill="#613296"/>
<path d="M49.256 16.1574C35.8811 2.78249 14.1189 2.78249 0.744331 16.1574C0.271293 16.6347 0.00655999 17.2798 0.00806301 17.9518C0.00956602 18.6238 0.277182 19.2678 0.752351 19.7429C1.22752 20.218 1.87155 20.4856 2.5435 20.487C3.21546 20.4884 3.86063 20.2236 4.33783 19.7506C9.85664 14.2314 17.1947 11.1922 25 11.1922C32.8053 11.1922 40.1434 14.2317 45.6622 19.7506C46.1585 20.2465 46.809 20.4949 47.4591 20.4949C48.1093 20.4949 48.7597 20.2469 49.256 19.7506C49.7325 19.2741 50.0001 18.6278 50.0001 17.954C50.0001 17.2801 49.7325 16.6339 49.256 16.1574Z" fill="#613296"/>
<path d="M25 43.8738C26.5401 43.8738 27.7886 42.6254 27.7886 41.0853C27.7886 39.5452 26.5401 38.2968 25 38.2968C23.46 38.2968 22.2115 39.5452 22.2115 41.0853C22.2115 42.6254 23.46 43.8738 25 43.8738Z" fill="#613296"/>
</g>
<defs>
<clipPath id="clip0_10_242">
<rect width="50" height="50" fill="white"/>
</clipPath>
</defs>
</svg>
