<svg width="50" height="50" viewBox="0 0 50 50" fill="none" xmlns="http://www.w3.org/2000/svg">
<g clip-path="url(#clip0_53_13)">
<path fill-rule="evenodd" clip-rule="evenodd" d="M27.0439 4.68752C25.9652 4.68752 25.0908 3.8131 25.0908 2.73439C25.0908 1.65568 25.9652 0.781266 27.0439 0.781266C32.7187 0.781266 38.3937 2.9463 42.7237 7.27629C44.839 9.39162 46.4411 11.8425 47.5287 14.4681C48.6437 17.1591 49.218 20.0432 49.2187 22.9561C49.2187 24.0348 48.3443 24.9092 47.2656 24.9092C46.1869 24.9092 45.3125 24.0348 45.3125 22.9561C45.3125 20.5621 44.8509 18.1771 43.9277 15.9483C43.0418 13.8094 41.7202 11.7963 39.962 10.0382C36.3949 6.47111 31.7195 4.68752 27.0439 4.68752ZM20.6865 29.3135C18.5356 27.1665 16.6293 24.79 15.0088 22.2277C14.4171 21.2918 14.4233 20.1675 15.025 19.2384L17.3374 15.6681C17.8307 14.906 17.9249 14.0364 17.6059 13.1866L13.6283 2.58517C13.0054 0.924918 11.034 0.267984 9.53953 1.22277L3.99022 4.76837C1.4577 6.38654 0.281917 9.29533 0.979573 12.2187C3.12674 21.2163 7.80995 29.3135 14.2827 35.7173C20.6865 42.1902 28.7837 46.8734 37.7814 49.0204C40.7047 49.7181 43.6136 48.5423 45.2317 46.0098L48.7772 40.4605C49.7321 38.966 49.0751 36.9945 47.4148 36.3717L36.8135 32.394C35.9636 32.075 35.0941 32.1692 34.332 32.6625L30.7617 34.975C29.8326 35.5767 28.7083 35.5829 27.7724 34.9912C25.21 33.3707 22.8335 31.4644 20.6865 29.3135ZM27.0439 20.5132C27.3743 20.5132 27.6959 20.5737 27.9883 20.6948C28.2628 20.8085 28.5291 20.9861 28.7716 21.2285C29.014 21.4709 29.1916 21.7373 29.3053 22.0118C29.4263 22.3041 29.4869 22.6257 29.4869 22.9561C29.4869 24.0348 30.3613 24.9092 31.44 24.9092C32.5187 24.9092 33.3931 24.0348 33.3931 22.9561C33.3931 22.1402 33.2308 21.3153 32.9063 20.5317C32.591 19.7704 32.133 19.0662 31.5334 18.4666C30.9338 17.867 30.2297 17.409 29.4683 17.0937C28.6847 16.7692 27.8598 16.6069 27.0439 16.6069C25.9652 16.6069 25.0908 17.4813 25.0908 18.56C25.0908 19.6387 25.9653 20.5132 27.0439 20.5132ZM27.0439 12.5928C28.394 12.5928 29.7471 12.8564 31.02 13.3836C32.2266 13.8834 33.3664 14.633 34.3667 15.6334C35.367 16.6337 36.1167 17.7735 36.6165 18.9801C37.1385 20.2407 37.4072 21.5917 37.4073 22.9561C37.4073 24.0305 38.2783 24.9016 39.3528 24.9016C40.4272 24.9016 41.2983 24.0306 41.2983 22.9561C41.2983 21.0963 40.9381 19.2395 40.2176 17.5C39.5161 15.8066 38.486 14.229 37.1286 12.8716C35.7712 11.5141 34.1936 10.484 32.5002 9.78263C30.7607 9.06213 28.9037 8.70187 27.044 8.70187C25.9696 8.70187 25.0985 9.57296 25.0985 10.6474C25.0985 11.7218 25.9695 12.5928 27.0439 12.5928Z" fill="#613296"/>
</g>
<defs>
<clipPath id="clip0_53_13">
<rect width="50" height="50" fill="white"/>
</clipPath>
</defs>
</svg>
