<svg width="17" height="13" viewBox="0 0 17 13" fill="none" xmlns="http://www.w3.org/2000/svg">
<path d="M14.6398 0.5H2.36018C1.05676 0.5 0 1.51535 0 2.7677V10.2323C0 11.4846 1.05676 12.5 2.36018 12.5H14.6398C15.9432 12.5 17 11.4846 17 10.2323V2.7677C17 1.51535 15.9432 0.5 14.6398 0.5ZM5.91567 8.59661L2.61063 11.3057C2.37751 11.4969 2.02705 11.4703 1.82813 11.2461C1.62918 11.0221 1.65684 10.6854 1.89022 10.4943L5.19526 7.78515C5.42835 7.59399 5.77877 7.62056 5.97772 7.8448C6.17668 8.06876 6.14902 8.40548 5.91567 8.59661ZM8.5 7.56668C8.05793 7.56563 7.62941 7.42449 7.29439 7.14611L7.29466 7.14637L7.2936 7.1456C7.29386 7.14586 7.29416 7.14586 7.29439 7.14611L2.22335 2.9172C1.99159 2.72393 1.96692 2.38724 2.16777 2.16485C2.36888 1.94217 2.71934 1.91847 2.95076 2.11144L8.02324 6.34141C8.13165 6.43412 8.31028 6.50105 8.5 6.5C8.68946 6.50054 8.86507 6.43543 8.97945 6.3396L8.98191 6.33752L14.0492 2.11147C14.2807 1.9185 14.6311 1.9422 14.8322 2.16488C15.033 2.38724 15.0084 2.72396 14.7767 2.91723L9.70421 7.14742C9.37029 7.4229 8.94233 7.56614 8.5 7.56668ZM15.1721 11.2461C14.9731 11.4703 14.6227 11.4969 14.3896 11.3057L11.0846 8.59661C10.8512 8.40545 10.8236 8.06876 11.0225 7.8448C11.2215 7.62056 11.5719 7.59402 11.805 7.78515L15.11 10.4943C15.3434 10.6854 15.3711 11.0221 15.1721 11.2461Z" fill="#FF964A"/>
</svg>
