<svg width="14" height="15" viewBox="0 0 14 15" fill="none" xmlns="http://www.w3.org/2000/svg">
<path d="M9.76592 9.4816L9.41164 9.85449C9.41164 9.85449 8.56962 10.741 6.27129 8.32124C3.97298 5.90155 4.81498 5.01507 4.81498 5.01507L5.03805 4.7802C5.58763 4.20164 5.63943 3.27275 5.15993 2.59463L4.1792 1.20748C3.58577 0.368166 2.43908 0.257294 1.7589 0.973388L0.538104 2.25867C0.200844 2.61374 -0.0251625 3.07402 0.00224637 3.58463C0.072363 4.89092 0.63055 7.70153 3.74528 10.9808C7.04829 14.4582 10.1475 14.5964 11.4149 14.4713C11.8158 14.4318 12.1644 14.2156 12.4453 13.9198L13.5502 12.7566C14.296 11.9714 14.0857 10.6252 13.1314 10.076L11.6455 9.2207C11.0189 8.86008 10.2556 8.96599 9.76592 9.4816Z" fill="#FF964A"/>
</svg>
