<svg width="16" height="16" viewBox="0 0 16 16" fill="none" xmlns="http://www.w3.org/2000/svg">
<g clip-path="url(#clip0_18_342)">
<path d="M8.16663 0.5C5.06022 0.5 2.54163 3.01859 2.54163 6.125C2.54163 7.3482 2.94264 8.47062 3.6092 9.38984C3.62116 9.41187 3.62303 9.43648 3.63663 9.45758L7.38663 15.0826C7.56053 15.3434 7.8535 15.5 8.16663 15.5C8.47975 15.5 8.77272 15.3434 8.94663 15.0826L12.6966 9.45758C12.7105 9.43648 12.7121 9.41187 12.724 9.38984C13.3906 8.47062 13.7916 7.3482 13.7916 6.125C13.7916 3.01859 11.273 0.5 8.16663 0.5ZM8.16663 8C7.13116 8 6.29163 7.16047 6.29163 6.125C6.29163 5.08953 7.13116 4.25 8.16663 4.25C9.20209 4.25 10.0416 5.08953 10.0416 6.125C10.0416 7.16047 9.20209 8 8.16663 8Z" fill="#FF964A"/>
</g>
<defs>
<clipPath id="clip0_18_342">
<rect width="15" height="15" fill="white" transform="translate(0.666626 0.5)"/>
</clipPath>
</defs>
</svg>
