<svg width="57" height="50" viewBox="0 0 57 50" fill="none" xmlns="http://www.w3.org/2000/svg">
<path d="M0 49.5207L1.46907 39.4618C4.47251 39.7198 6.85567 39.2039 8.61856 37.9143C10.3814 36.6892 11.5893 34.916 12.2423 32.5947C12.8299 30.3379 12.9278 27.7587 12.5361 24.8571L0 24.8571L0 0L24.1907 0L24.1907 25.8243C24.1907 34.2712 22.1667 40.6547 18.1186 44.9749C14.0704 49.3595 8.03093 50.8748 0 49.5207ZM32.8093 49.5207L34.2784 39.4618C37.2818 39.7198 39.6649 39.2039 41.4278 37.9143C43.1907 36.6892 44.3986 34.916 45.0515 32.5947C45.6392 30.3379 45.7371 27.7587 45.3454 24.8571L32.8093 24.8571L32.8093 0L57 0L57 25.8243C57 34.2712 54.9759 40.6547 50.9278 44.9749C46.8797 49.3595 40.8402 50.8748 32.8093 49.5207Z" fill="#613296"/>
</svg>
