<svg width="25" height="25" viewBox="0 0 25 25" fill="none" xmlns="http://www.w3.org/2000/svg">
<g clip-path="url(#clip0_15_209)">
<path d="M10.5566 18.7356L8.98679 17.1658L7.71614 18.4364L8.71311 19.4334C8.77554 19.4958 8.85661 19.5362 8.94406 19.5485C9.03151 19.5608 9.12058 19.5442 9.19778 19.5014C9.55764 19.3015 10.023 19.0405 10.5566 18.7356ZM6.27893 18.9786C5.88338 18.5109 5.32762 18.2771 4.7718 18.2771C4.10545 18.2625 3.39519 18.6928 3.03015 19.3253C1.69436 21.64 1.39617 22.1174 1.2906 22.3045L0.0673126 24.4166C-0.109787 24.7384 0.241629 25.0928 0.565604 24.9191C1.251 24.5319 2.95008 23.5236 3.52322 23.222L5.77932 21.9382C6.80818 21.3468 7.07205 19.8769 6.27893 18.9786ZM5.59798 16.3183L6.58113 17.3014L7.85179 16.0308L6.25393 14.433C6.00441 14.9025 5.76047 15.3749 5.52215 15.8501C5.48398 15.9262 5.47076 16.0124 5.48437 16.0964C5.49799 16.1805 5.53774 16.2581 5.59798 16.3183ZM16.5229 6.74464C16.0745 6.74464 15.6262 6.91524 15.2847 7.25665C14.6055 7.9085 14.6054 9.08116 15.2847 9.73292C15.9365 10.4122 17.1093 10.4122 17.7611 9.73297C18.8635 8.63521 18.0607 6.73438 16.5229 6.74464ZM8.45218 7.72686L4.06238 7.53399C4.01117 7.53174 3.96006 7.54016 3.91228 7.55872C3.8645 7.57728 3.8211 7.60557 3.78484 7.64181L0.108524 11.3181C-0.0998261 11.5264 0.00837703 11.8826 0.297537 11.9402L5.23963 12.9256C6.08474 11.3795 7.21062 9.46226 8.45218 7.72686ZM12.0657 19.7216L13.1183 24.7067C13.1788 24.9933 13.5337 25.0984 13.7409 24.8912L17.4197 21.2125C17.4568 21.1754 17.4855 21.1309 17.504 21.0819C17.5225 21.0329 17.5303 20.9805 17.5269 20.9282L17.2411 16.4958C15.575 17.6407 13.6304 18.8145 12.0657 19.7216ZM24.3204 3.82955C24.7094 2.44688 24.902 1.25274 24.9973 0.410653C25.0239 0.176717 24.8274 -0.0227943 24.5929 0.00181505C22.705 0.19996 20.8791 0.642294 19.1387 1.32198L23.6512 5.83433C23.9058 5.17704 24.1292 4.50803 24.3204 3.82955Z" fill="#FF964A"/>
<path d="M22.9654 7.4189L17.5611 2.01465C15.4693 3.03828 13.5655 4.40034 11.8974 6.06836C10.5306 7.43516 8.93131 9.68887 7.27242 12.5859C7.20009 12.7123 7.12818 12.8389 7.0567 12.9658L8.98688 14.8959L11.6244 12.2584C11.9379 11.9449 12.4461 11.9449 12.7595 12.2584C13.0729 12.5718 13.0729 13.08 12.7595 13.3935L10.1219 16.031L11.9933 17.9022C17.4196 14.742 20.5173 12.5416 22.9654 7.4189ZM16.523 11.8512C14.7189 11.8884 13.1294 10.2991 13.1667 8.49497C13.1542 5.52881 16.8027 4.01836 18.8962 6.12178C21 8.21641 19.4889 11.8634 16.523 11.8512Z" fill="#FF964A"/>
</g>
<defs>
<clipPath id="clip0_15_209">
<rect width="25" height="25" fill="white"/>
</clipPath>
</defs>
</svg>
