<svg width="25" height="25" viewBox="0 0 25 25" fill="none" xmlns="http://www.w3.org/2000/svg">
<g clip-path="url(#clip0_15_217)">
<path d="M12.5 6.84131C9.37979 6.84131 6.84131 9.37974 6.84131 12.5C6.84131 15.6202 9.37979 18.1586 12.5 18.1586C15.6201 18.1586 18.1586 15.6201 18.1586 12.5C18.1586 11.2034 17.72 10.0076 16.9838 9.05234L15.7456 10.2905C16.1758 10.9205 16.4279 11.6813 16.4279 12.5C16.4279 14.6658 14.6658 16.4279 12.5 16.4279C10.3341 16.4279 8.57202 14.6658 8.57202 12.5C8.57202 10.3341 10.3341 8.57202 12.5 8.57202C13.3189 8.57202 14.0798 8.82427 14.7099 9.25469L15.948 8.01655C14.9927 7.28008 13.7967 6.84131 12.5 6.84131Z" fill="#FF964A"/>
<path d="M3.64587 12.4999C3.64587 17.3821 7.61785 21.3541 12.5 21.3541C17.3822 21.3541 21.3542 17.3821 21.3542 12.4999C21.3542 10.908 20.9317 9.41304 20.1932 8.12085L18.6474 7.38877L18.0261 8.01011C19.0241 9.23623 19.6235 10.7993 19.6235 12.4999C19.6235 16.4278 16.428 19.6234 12.5 19.6234C8.57209 19.6234 5.37654 16.4278 5.37654 12.4999C5.37654 8.57202 8.57214 5.37642 12.5 5.37642C14.2009 5.37642 15.7641 5.97588 16.9903 6.97427L17.6116 6.35298L16.8798 4.80771C15.5875 4.06875 14.0924 3.64575 12.5 3.64575C7.6178 3.64575 3.64587 7.61768 3.64587 12.4999Z" fill="#FF964A"/>
<path d="M11.9825 11.9822L13.6446 10.3201C13.2918 10.1338 12.8989 10.0366 12.5 10.037C11.1418 10.037 10.0369 11.1419 10.0369 12.5C10.0369 13.8582 11.1418 14.9631 12.5 14.9631C13.8581 14.9631 14.963 13.8582 14.963 12.5C14.9634 12.1014 14.8663 11.7086 14.6802 11.356L13.0183 13.018L11.9825 11.9822ZM21.8075 3.19292L21.0955 1.68945L18.3323 4.45264L19.0443 5.95605L20.5478 6.66812L23.311 3.90493L21.8075 3.19292Z" fill="#FF964A"/>
<path d="M21.6167 7.67075C22.3837 9.11245 22.819 10.7562 22.819 12.5C22.819 18.1899 18.1899 22.819 12.5 22.819C6.81016 22.819 2.18101 18.1899 2.18101 12.5C2.18101 6.81006 6.81006 2.18101 12.5 2.18101C14.244 2.18101 15.8879 2.6165 17.3298 3.38364L18.9345 1.77895C17.0112 0.619775 14.8034 0 12.5 0C9.16113 0 6.02212 1.30024 3.66113 3.66113C1.30024 6.02212 0 9.16113 0 12.5C0 15.8389 1.30024 18.9779 3.66113 21.3389C6.02212 23.6998 9.16113 25 12.5 25C15.8389 25 18.9779 23.6998 21.3389 21.3389C23.6998 18.9779 25 15.8389 25 12.5C25 10.1968 24.3803 7.98926 23.2214 6.06611L21.6167 7.67075Z" fill="#FF964A"/>
</g>
<defs>
<clipPath id="clip0_15_217">
<rect width="25" height="25" fill="white"/>
</clipPath>
</defs>
</svg>
